<?xml version="1.0" standalone="no"?>
<!DOCTYPE svg PUBLIC "-//W3C//DTD SVG 20010904//EN"
 "http://www.w3.org/TR/2001/REC-SVG-20010904/DTD/svg10.dtd">
<svg version="1.0" xmlns="http://www.w3.org/2000/svg"
 width="217.000000pt" height="217.000000pt" viewBox="0 0 217.000000 217.000000"
 preserveAspectRatio="xMidYMid meet">
<metadata>
Created by potrace 1.14, written by Peter Selinger 2001-2017
</metadata>
<g transform="translate(0.000000,217.000000) scale(0.100000,-0.100000)"
fill="#000000" stroke="none">
<path d="M832 1941 c-15 -16 -49 -79 -76 -140 -27 -62 -79 -160 -114 -219 -35
-59 -76 -127 -90 -152 -14 -25 -52 -76 -85 -115 -34 -38 -67 -77 -74 -86 -12
-14 -10 -25 11 -73 l25 -56 50 53 51 52 0 -48 c0 -26 -6 -80 -14 -120 -69
-341 -94 -644 -62 -722 18 -42 48 -60 76 -45 31 17 77 92 95 156 9 32 29 93
45 134 31 83 96 289 105 335 15 70 121 294 147 309 14 9 27 1 70 -41 96 -95
215 -109 282 -34 21 23 35 14 36 -24 0 -35 45 -117 108 -202 34 -44 62 -89 62
-99 0 -9 -26 -47 -59 -83 -76 -86 -146 -195 -176 -274 -21 -57 -23 -72 -16
-155 4 -50 13 -98 20 -106 43 -52 185 -58 280 -12 115 55 245 179 290 276 52
114 33 262 -49 371 -22 29 -40 56 -40 59 0 3 36 54 81 114 l81 109 -20 51
c-10 28 -24 51 -29 51 -5 0 -47 -44 -92 -97 -46 -53 -90 -99 -99 -103 -20 -7
-43 15 -99 98 -47 68 -48 71 -48 147 l0 77 80 85 c201 213 275 312 275 370 0
84 -45 122 -121 99 -46 -14 -79 -45 -218 -206 -79 -92 -114 -142 -149 -215
-28 -58 -66 -117 -98 -151 -28 -31 -56 -64 -61 -74 -18 -32 -41 -9 -92 93 -72
143 -130 185 -201 145 -49 -28 -121 -176 -205 -425 -37 -109 -69 -198 -71
-198 -24 0 75 391 181 712 100 303 110 353 75 388 -27 27 -37 25 -68 -9z
m-201 -1173 c-15 -79 -22 -101 -28 -95 -2 3 3 41 13 86 20 94 32 101 15 9z
m981 -75 c24 -28 48 -100 48 -141 -1 -55 -34 -120 -93 -180 -80 -82 -170 -120
-212 -89 -19 14 -19 16 -2 69 9 30 51 107 92 172 123 193 136 205 167 169z"/>
</g>
</svg>
